<svg width="17" height="16" viewBox="0 0 17 16" fill="none" xmlns="http://www.w3.org/2000/svg">
<g clip-path="url(#clip0_1738_1861)">
<path d="M11.6849 3.30833L14.1208 5.81389C14.2234 5.91944 14.2234 6.09167 14.1208 6.19722L8.2228 12.2639L5.71669 12.55C5.38182 12.5889 5.09827 12.2972 5.13607 11.9528L5.41423 9.375L11.3122 3.30833C11.4148 3.20278 11.5823 3.20278 11.6849 3.30833ZM16.0598 2.67222L14.7419 1.31667C14.3314 0.894444 13.6644 0.894444 13.2512 1.31667L12.2952 2.3C12.1926 2.40556 12.1926 2.57778 12.2952 2.68333L14.7311 5.18889C14.8337 5.29444 15.0012 5.29444 15.1038 5.18889L16.0598 4.20556C16.4703 3.78056 16.4703 3.09444 16.0598 2.67222ZM11.1826 10.6139V13.4417H2.54085V4.55278H8.7467C8.83312 4.55278 8.91414 4.51667 8.97625 4.45556L10.0565 3.34444C10.2617 3.13333 10.1159 2.775 9.82692 2.775H2.10876C1.39312 2.775 0.8125 3.37222 0.8125 4.10833V13.8861C0.8125 14.6222 1.39312 15.2194 2.10876 15.2194H11.6147C12.3303 15.2194 12.9109 14.6222 12.9109 13.8861V9.50278C12.9109 9.20555 12.5626 9.05833 12.3573 9.26667L11.2771 10.3778C11.2177 10.4417 11.1826 10.525 11.1826 10.6139Z" fill="red"/>
</g>
<defs>
<clipPath id="clip0_1738_1861">
<rect width="15.5551" height="16" fill="white" transform="translate(0.8125)"/>
</clipPath>
</defs>
</svg>
