<svg width="25" height="21" viewBox="0 0 25 21" fill="none" xmlns="http://www.w3.org/2000/svg">
<path d="M25 5.8517V18.4053C25 19.5605 23.9502 20.4976 22.6562 20.4976H2.34375C1.0498 20.4976 0 19.5605 0 18.4053V5.8517C0 4.69659 1.0498 3.75943 2.34375 3.75943H6.64062L7.24121 2.32535C7.58301 1.51023 8.45703 0.969727 9.43359 0.969727H15.5615C16.5381 0.969727 17.4121 1.51023 17.7539 2.32535L18.3594 3.75943H22.6562C23.9502 3.75943 25 4.69659 25 5.8517ZM18.3594 12.1285C18.3594 9.24293 15.7324 6.89784 12.5 6.89784C9.26758 6.89784 6.64062 9.24293 6.64062 12.1285C6.64062 15.0141 9.26758 17.3592 12.5 17.3592C15.7324 17.3592 18.3594 15.0141 18.3594 12.1285ZM16.7969 12.1285C16.7969 14.2426 14.8682 15.9644 12.5 15.9644C10.1318 15.9644 8.20312 14.2426 8.20312 12.1285C8.20312 10.0145 10.1318 8.29269 12.5 8.29269C14.8682 8.29269 16.7969 10.0145 16.7969 12.1285Z" fill="#EF9B28" fill-opacity="0.6"/>
</svg>
